# xmcd CD database file
#
# Track frame offsets:
#	150
#	13808
#	25281
#	41196
#	50514
#	68780
#	85322
#	96791
#	109283
#	121364
#
# Disc length: 1784 seconds
#
# Revision: 0
# Processed by: cddbd v1.5.2PL0 Copyright (c) Steve Scherf et al.
# Submitted via: CDex 1.51
#
DISCID=8806f60a
DTITLE=Willie Nelson - Original Outlaw - Country Superstar (Disk 2)
DYEAR=2006
DGENRE=Country
TTITLE0=Heartbreak Hotel (with Leon Russell)
TTITLE1=Just Out Of Reach (with Patsy Cline)
TTITLE2=Reasons To Quit (with Merle Haggard)
TTITLE3=Something to Brag About - Mary Kay Place (with Willie Nelson)
TTITLE4=Night Life (with Ray Price)
TTITLE5=Don't You Ever Get Tired Of Hurting Me (with Ray Price)
TTITLE6=Hello Walls (with Faron Young)
TTITLE7=Half A Man
TTITLE8=Ten With A Two
TTITLE9=You Nearly Lose Your Mind (with Ernest Tubb and Waylon Jennings)
EXTD=YEAR: 2006
EXTT0=
EXTT1=
EXTT2=
EXTT3=
EXTT4=
EXTT5=
EXTT6=
EXTT7=
EXTT8=
EXTT9=
PLAYORDER=
